<svg class="svg-canvas" viewBox="0 0 800 600" width="1600" height="1200" preserveAspectRatio="none" version="1.1" xmlns="http://www.w3.org/2000/svg" xmlns:xlink="http://www.w3.org/1999/xlink">
      <!--滤镜-->
      <defs></defs>
    
      <!-- 背景 -->
      <g id="background">
          <rect x="0" y="0" fill="#28343c" width="800" height="600"></rect>
          
        </g>
    
      <!--元素-->
      
              <g id="shape_VioJf9vveP" ref="shape_VioJf9vveP" key="shape_VioJf9vveP" mask="">
                <g transform="translate(4.47985457926552,-7.458670013334654) rotate(0,382.79837091664984,300.3399581169584) scale(1,1)" style="opacity: 1;mix-blend-mode: undefined;" filter="">
                  <!--普通元素-->
                  <svg xmlns="http://www.w3.org/2000/svg" version="1.1" xmlns:xlink="http://www.w3.org/1999/xlink" width="765.5967418332997" height="600.6799162339169" viewBox="0 0 1290.5650679129599 1012.5650679129599" data-ligature="true" data-parent="shape_VioJf9vveP"><g data-role="text" data-width="445.27934001856164" data-height="168" transform="translate(422.28253395647994, 422.28253395647994)"><path d="M81.08-30.54L81.08-41.38C81.08-63.76 63.91-76.01 44.20-76.01C25.48-76.01 6.62-62.50 6.62-37.30C6.62-13.23 24.35 1.13 44.48 1.13C55.04 1.13 66.30-1.41 76.01-11.40L67.00-21.25C61.65-14.78 53.35-12.39 45.61-12.39C34.35-12.39 23.23-19.14 22.38-30.54ZM22.38-42.93C22.38-55.60 34.06-62.50 45.04-62.50C55.46-62.50 65.31-56.30 65.31-42.93Z" transform="translate(0 134) " fill="rgb(255, 255, 255)" stroke="rgb(255, 255, 255)" stroke-width="0.235" data-glyph-w="81.9897100030936" data-glyph-h="171.58643999999998" data-glyph-ascender="136.25567999999998" data-glyph-descender="-35.33076" data-kerning="0"></path><path d="M87.97-37.44C87.97-62.36 70.10-76.01 52.36-76.01C43.07-76.01 33.78-71.93 27.17-61.79L27.17-74.88L11.40-74.88L11.40 27.31L27.17 27.31L27.17-11.26C34.63-3.10 43.07 1.13 52.64 1.13C70.66 1.13 87.97-14.08 87.97-37.44ZM48.98-12.95C37.16-12.95 26.89-22.80 26.89-37.02C26.89-51.94 37.16-62.22 48.98-62.22C61.79-62.22 72.21-51.66 72.21-37.30C72.21-22.38 60.95-12.95 48.98-12.95Z" transform="translate(81.9897100030936 134) " fill="rgb(255, 255, 255)" stroke="rgb(255, 255, 255)" stroke-width="0.235" data-glyph-w="89.59075000309362" data-glyph-h="171.58643999999998" data-glyph-ascender="136.25567999999998" data-glyph-descender="-35.33076" data-kerning="0"></path><path d="M30.83-62.22L50.53-62.22L50.53-74.88L30.83-74.88L30.83-98.39L15.06-98.39L15.06-74.88L5.63-74.88L5.63-62.22L15.06-62.22L15.06-24.63C15.06-8.16 26.60 1.13 39.13 1.13C45.47 1.13 52.08-1.27 57.71-6.33L51.24-17.45C48.70-14.78 45.32-12.53 41.10-12.53C34.91-12.53 30.83-17.17 30.83-24.21Z" transform="translate(171.58046000618722 134) " fill="rgb(255, 255, 255)" stroke="rgb(255, 255, 255)" stroke-width="0.235" data-glyph-w="53.83771000309362" data-glyph-h="171.58643999999998" data-glyph-ascender="136.25567999999998" data-glyph-descender="-35.33076" data-kerning="0"></path><path d="M51.38-76.01C41.38-75.73 32.09-68.97 27.17-59.82L27.17-74.88L11.40-74.88L11.40 0L27.17 0L27.17-32.09C27.17-48.14 34.49-60.53 51.52-60.10Z" transform="translate(225.41817000928086 134) " fill="rgb(255, 255, 255)" stroke="rgb(255, 255, 255)" stroke-width="0.235" data-glyph-w="50.88175000309362" data-glyph-h="171.58643999999998" data-glyph-ascender="136.25567999999998" data-glyph-descender="-35.33076" data-kerning="0"></path><path d="M81.08-30.54L81.08-41.38C81.08-63.76 63.91-76.01 44.20-76.01C25.48-76.01 6.62-62.50 6.62-37.30C6.62-13.23 24.35 1.13 44.48 1.13C55.04 1.13 66.30-1.41 76.01-11.40L67.00-21.25C61.65-14.78 53.35-12.39 45.61-12.39C34.35-12.39 23.23-19.14 22.38-30.54ZM22.38-42.93C22.38-55.60 34.06-62.50 45.04-62.50C55.46-62.50 65.31-56.30 65.31-42.93Z" transform="translate(276.29992001237446 134) " fill="rgb(255, 255, 255)" stroke="rgb(255, 255, 255)" stroke-width="0.235" data-glyph-w="81.9897100030936" data-glyph-h="171.58643999999998" data-glyph-ascender="136.25567999999998" data-glyph-descender="-35.33076" data-kerning="0"></path><path d="M81.08-30.54L81.08-41.38C81.08-63.76 63.91-76.01 44.20-76.01C25.48-76.01 6.62-62.50 6.62-37.30C6.62-13.23 24.35 1.13 44.48 1.13C55.04 1.13 66.30-1.41 76.01-11.40L67.00-21.25C61.65-14.78 53.35-12.39 45.61-12.39C34.35-12.39 23.23-19.14 22.38-30.54ZM22.38-42.93C22.38-55.60 34.06-62.50 45.04-62.50C55.46-62.50 65.31-56.30 65.31-42.93Z" transform="translate(358.28963001546805 134) " fill="rgb(255, 255, 255)" stroke="rgb(255, 255, 255)" stroke-width="0.235" data-glyph-w="81.9897100030936" data-glyph-h="171.58643999999998" data-glyph-ascender="136.25567999999998" data-glyph-descender="-35.33076" data-kerning="0"></path></g></svg>
                </g>
              </g>
              <g id="shape_zia2oHCDfa" ref="shape_zia2oHCDfa" key="shape_zia2oHCDfa" mask="">
                <g transform="translate(139.00061481810002,278.9204418321314) rotate(0,278.5396384201425,67.05457249863179) scale(1,1)" style="opacity: 1;mix-blend-mode: undefined;" filter="">
                  <!--普通元素-->
                  <svg xmlns="http://www.w3.org/2000/svg" version="1.1" xmlns:xlink="http://www.w3.org/1999/xlink" width="557.0792768402852" height="134.10914499726357" viewBox="0 0 939.067547527296 226.06754752729603" data-ligature="true" data-parent="shape_zia2oHCDfa"><g data-role="text" data-width="749.5779736328124" data-height="37" transform="translate(94.533773763648, 94.533773763648)"><path d="M8.09 0L8.09 0L8.09-19.91L8.09-19.91L0.45-19.91L0.45-19.91L0.45-21.26L0.45-22.62L0.45-22.62L18.80-22.62L18.80-22.62L18.80-21.26L18.80-19.91L18.80-19.91L11.15-19.91L11.15-19.91L11.15 0L11.15 0L9.63 0L8.09 0Z" transform="translate(0 29) " fill="#0fc8af" stroke="#0fc8af" stroke-width="0.053" data-glyph-w="19.2475634765625" data-glyph-h="36.1103369140625" data-glyph-ascender="29.23291015625" data-glyph-descender="-6.877426757812501" data-kerning="0"></path><path d="M2.05 0L2.05 0L2.05-22.62L2.05-22.62L3.43-22.62L4.82-22.62L4.82-22.62L4.82-14.23L4.82-14.23L4.82-14.23L5.29-14.85Q7.09-16.96 9.80-16.96L9.80-16.96Q12.52-16.96 14.00-15.48Q15.48-14.00 15.48-11.28L15.48-11.28L15.48 0L15.48 0L14.09 0L12.71 0L12.71 0L12.71-10.59Q12.71-12.63 11.92-13.53Q11.14-14.43 9.37-14.43L9.37-14.43Q7.28-14.43 6.05-12.92Q4.82-11.40 4.82-8.82L4.82-8.82L4.82-8.82L4.82 0L4.82 0L3.43 0L2.05 0Z" transform="translate(19.2475634765625 29) " fill="#0fc8af" stroke="#0fc8af" stroke-width="0.053" data-glyph-w="17.5243603515625" data-glyph-h="36.1103369140625" data-glyph-ascender="29.23291015625" data-glyph-descender="-6.877426757812501" data-kerning="0"></path><path d="M8.75 0.45L8.75 0.45Q5.26 0.45 3.26-1.77Q1.26-3.98 1.26-7.89L1.26-7.89Q1.26-12.05 3.38-14.50Q5.49-16.96 9.06-16.96L9.06-16.96Q12.29-16.96 14.28-14.55Q16.26-12.15 16.26-8.25L16.26-8.25L16.23-7.26L16.23-7.26L4.20-7.26L4.20-7.26Q4.37-4.80 5.32-3.51L5.32-3.51Q6.49-1.94 9.02-1.94L9.02-1.94Q10.60-1.94 11.79-2.83Q12.97-3.72 13.23-5.11L13.23-5.11L13.23-5.11L15.97-5.11L15.97-5.11Q15.35-2.40 13.51-0.98Q11.66 0.45 8.75 0.45ZM4.20-9.49L13.37-9.49L13.37-9.49Q13.25-11.79 12.23-13.06L12.23-13.06Q11.11-14.48 8.94-14.48L8.94-14.48Q6.75-14.48 5.45-12.85L5.45-12.85Q4.42-11.57 4.20-9.49L4.20-9.49L4.20-9.49Z" transform="translate(36.771923828125 29) " fill="#0fc8af" stroke="#0fc8af" stroke-width="0.053" data-glyph-w="17.5243603515625" data-glyph-h="36.1103369140625" data-glyph-ascender="29.23291015625" data-glyph-descender="-6.877426757812501" data-kerning="0"></path><path d="M0,0Z" transform="translate(54.2962841796875 29) " fill="#0fc8af" stroke="#0fc8af" stroke-width="0.053" data-glyph-w="8.754487304687501" data-glyph-h="36.1103369140625" data-glyph-ascender="29.23291015625" data-glyph-descender="-6.877426757812501" data-kerning="0"></path><path d="M12.25 0.62L12.25 0.62Q7.32 0.62 4.28-2.67Q1.23-5.95 1.23-11.29L1.23-11.29Q1.23-16.65 4.28-19.94Q7.32-23.23 12.25-23.23L12.25-23.23Q17.20-23.23 20.24-19.94Q23.28-16.65 23.28-11.29L23.28-11.29Q23.28-5.95 20.24-2.67Q17.20 0.62 12.25 0.62L12.25 0.62ZM12.25-2.09L12.25-2.09Q15.79-2.09 17.96-4.63Q20.12-7.17 20.12-11.29L20.12-11.29Q20.12-15.43 17.96-17.98Q15.79-20.52 12.25-20.52L12.25-20.52Q8.72-20.52 6.55-17.98Q4.38-15.43 4.38-11.29L4.38-11.29Q4.38-7.17 6.55-4.63Q8.72-2.09 12.25-2.09L12.25-2.09Z" transform="translate(63.050771484375 29) " fill="#0fc8af" stroke="#0fc8af" stroke-width="0.053" data-glyph-w="24.5094873046875" data-glyph-h="36.1103369140625" data-glyph-ascender="29.23291015625" data-glyph-descender="-6.877426757812501" data-kerning="0"></path><path d="M2.05 0L2.05 0L2.05-16.46L2.05-16.46L3.35-16.46L4.68-16.46L4.68-16.46L4.68-14.03L4.68-14.03L4.68-14.03L5.29-14.85Q7.09-16.96 9.80-16.96L9.80-16.96Q12.52-16.96 14.00-15.48Q15.48-14.00 15.48-11.28L15.48-11.28L15.48 0L15.48 0L14.09 0L12.71 0L12.71 0L12.71-10.34Q12.71-12.51 11.87-13.47Q11.03-14.43 9.15-14.43L9.15-14.43Q7.15-14.43 5.99-12.92Q4.82-11.40 4.82-8.82L4.82-8.82L4.82-8.82L4.82 0L4.82 0L3.43 0L2.05 0Z" transform="translate(87.5602587890625 29) " fill="#0fc8af" stroke="#0fc8af" stroke-width="0.053" data-glyph-w="17.5243603515625" data-glyph-h="36.1103369140625" data-glyph-ascender="29.23291015625" data-glyph-descender="-6.877426757812501" data-kerning="0"></path><path d="M2.11 0L2.11 0L2.11-22.62L2.11-22.62L3.49-22.62L4.88-22.62L4.88-22.62L4.88 0L4.88 0L3.49 0L2.11 0Z" transform="translate(105.084619140625 29) " fill="#0fc8af" stroke="#0fc8af" stroke-width="0.053" data-glyph-w="7.0005126953125005" data-glyph-h="36.1103369140625" data-glyph-ascender="29.23291015625" data-glyph-descender="-6.877426757812501" data-kerning="0"></path><path d="M15.40-16.46L15.40-16.46L9.14 0.54Q7.69 4.34 6.56 5.51Q5.43 6.68 3.17 6.68L3.17 6.68Q2.43 6.69 1.83 6.51L1.83 6.51L1.83 3.94Q2.46 4.17 3.42 4.18L3.42 4.18Q4.35 4.18 4.98 3.42Q5.62 2.65 6.42 0.54L6.42 0.54L6.46 0.28L6.46 0.28L0.35-16.46L0.35-16.46L1.92-16.46L3.51-16.46L3.51-16.46L7.91-2.85L7.91-2.85L7.91-2.85L12.37-16.46L12.37-16.46L13.88-16.46L15.40-16.46Z" transform="translate(112.08513183593749 29) " fill="#0fc8af" stroke="#0fc8af" stroke-width="0.053" data-glyph-w="15.755" data-glyph-h="36.1103369140625" data-glyph-ascender="29.23291015625" data-glyph-descender="-6.877426757812501" data-kerning="0"></path><path d="M0,0Z" transform="translate(127.84013183593748 29) " fill="#0fc8af" stroke="#0fc8af" stroke-width="0.053" data-glyph-w="8.754487304687501" data-glyph-h="36.1103369140625" data-glyph-ascender="29.23291015625" data-glyph-descender="-6.877426757812501" data-kerning="0"></path><path d="M0.45 0L0.45 0L8.99-22.62L10.72-22.62L12.48-22.62L20.60 0L20.60 0L18.96 0L17.31 0L17.31 0L15.02-6.55L15.02-6.55L5.97-6.55L5.97-6.55L3.60 0L3.60 0L2.03 0L0.45 0ZM10.59-19.29L10.59-19.29L6.95-9.26L6.95-9.26L14.08-9.26L14.08-9.26L10.59-19.29L10.59-19.29Z" transform="translate(136.59461914062499 29) " fill="#0fc8af" stroke="#0fc8af" stroke-width="0.053" data-glyph-w="21.016923828125" data-glyph-h="36.1103369140625" data-glyph-ascender="29.23291015625" data-glyph-descender="-6.877426757812501" data-kerning="0"></path><path d="M1.83 6.51L1.83-16.46L1.83-16.46L3.14-16.46L4.46-16.46L4.46-16.46L4.46-14.12L4.46-14.12L4.60-14.32Q6.39-16.96 9.29-16.96L9.29-16.96Q12.52-16.96 14.41-14.73Q16.29-12.51 16.29-8.72L16.29-8.72Q16.29-4.43 14.39-1.99Q12.49 0.45 9.12 0.45L9.12 0.45Q6.34 0.45 4.69-1.69L4.69-1.69L4.60-1.82L4.60-1.82L4.60 6.51L4.60 6.51L3.22 6.51L1.83 6.51L1.83 6.51ZM8.99-1.95L8.99-1.95Q11.15-1.95 12.28-3.59Q13.40-5.23 13.40-8.37L13.40-8.37Q13.40-11.46 12.32-12.95Q11.25-14.43 9.00-14.43L9.00-14.43Q6.71-14.43 5.65-12.75Q4.60-11.08 4.60-7.45L4.60-7.45L4.60-7.45L4.60-7.45L4.60-7.45Q4.60-4.82 5.74-3.38Q6.88-1.95 8.99-1.95Z" transform="translate(157.61154296874997 29) " fill="#0fc8af" stroke="#0fc8af" stroke-width="0.053" data-glyph-w="17.5243603515625" data-glyph-h="36.1103369140625" data-glyph-ascender="29.23291015625" data-glyph-descender="-6.877426757812501" data-kerning="0"></path><path d="M1.83 6.51L1.83-16.46L1.83-16.46L3.14-16.46L4.46-16.46L4.46-16.46L4.46-14.12L4.46-14.12L4.60-14.32Q6.39-16.96 9.29-16.96L9.29-16.96Q12.52-16.96 14.41-14.73Q16.29-12.51 16.29-8.72L16.29-8.72Q16.29-4.43 14.39-1.99Q12.49 0.45 9.12 0.45L9.12 0.45Q6.34 0.45 4.69-1.69L4.69-1.69L4.60-1.82L4.60-1.82L4.60 6.51L4.60 6.51L3.22 6.51L1.83 6.51L1.83 6.51ZM8.99-1.95L8.99-1.95Q11.15-1.95 12.28-3.59Q13.40-5.23 13.40-8.37L13.40-8.37Q13.40-11.46 12.32-12.95Q11.25-14.43 9.00-14.43L9.00-14.43Q6.71-14.43 5.65-12.75Q4.60-11.08 4.60-7.45L4.60-7.45L4.60-7.45L4.60-7.45L4.60-7.45Q4.60-4.82 5.74-3.38Q6.88-1.95 8.99-1.95Z" transform="translate(175.13590332031248 29) " fill="#0fc8af" stroke="#0fc8af" stroke-width="0.053" data-glyph-w="17.5243603515625" data-glyph-h="36.1103369140625" data-glyph-ascender="29.23291015625" data-glyph-descender="-6.877426757812501" data-kerning="0"></path><path d="M0,0Z" transform="translate(192.660263671875 29) " fill="#0fc8af" stroke="#0fc8af" stroke-width="0.053" data-glyph-w="8.754487304687501" data-glyph-h="36.1103369140625" data-glyph-ascender="29.23291015625" data-glyph-descender="-6.877426757812501" data-kerning="0"></path><path d="M8.99 0L8.99-9.05L8.99-9.05L0.45-22.62L0.45-22.62L2.23-22.62L4.03-22.62L4.03-22.62L10.52-11.65L10.52-11.65L17.03-22.62L17.03-22.62L18.80-22.62L20.57-22.62L20.57-22.62L12.05-9.00L12.05-9.00L12.05 0L10.52 0L8.99 0Z" transform="translate(201.4147509765625 29) " fill="#0fc8af" stroke="#0fc8af" stroke-width="0.053" data-glyph-w="21.016923828125" data-glyph-h="36.1103369140625" data-glyph-ascender="29.23291015625" data-glyph-descender="-6.877426757812501" data-kerning="0"></path><path d="M8.75 0.45L8.75 0.45Q5.34 0.45 3.22-1.95Q1.11-4.35 1.11-8.25L1.11-8.25Q1.11-12.15 3.22-14.55Q5.34-16.96 8.75-16.96L8.75-16.96Q12.20-16.96 14.31-14.55Q16.42-12.15 16.42-8.25L16.42-8.25Q16.42-4.35 14.31-1.95Q12.20 0.45 8.75 0.45L8.75 0.45ZM8.75-1.94L8.75-1.94Q10.94-1.94 12.23-3.65Q13.52-5.35 13.52-8.25L13.52-8.25Q13.52-11.14 12.23-12.85Q10.94-14.57 8.75-14.57L8.75-14.57Q6.57-14.57 5.29-12.85Q4.00-11.14 4.00-8.25L4.00-8.25Q4.00-5.35 5.29-3.65Q6.57-1.94 8.75-1.94L8.75-1.94Z" transform="translate(222.43167480468747 29) " fill="#0fc8af" stroke="#0fc8af" stroke-width="0.053" data-glyph-w="17.5243603515625" data-glyph-h="36.1103369140625" data-glyph-ascender="29.23291015625" data-glyph-descender="-6.877426757812501" data-kerning="0"></path><path d="M4.91-16.46L4.91-16.46L4.91-5.85Q4.91-3.77 5.71-2.85Q6.51-1.94 8.31-1.94L8.31-1.94Q10.31-1.94 11.48-3.48Q12.65-5.03 12.65-7.68L12.65-7.68L12.65-7.68L12.65-16.46L12.65-16.46L14.03-16.46L15.42-16.46L15.42-16.46L15.42 0L15.42 0L14.11 0L12.79 0L12.79 0L12.79-2.51L12.79-2.51L12.79-2.51Q12.51-2.06 12.17-1.66L12.17-1.66Q10.40 0.45 7.74 0.45L7.74 0.45Q4.94 0.45 3.54-0.95Q2.14-2.35 2.14-5.15L2.14-5.15L2.14-16.46L2.14-16.46L3.52-16.46L4.91-16.46Z" transform="translate(239.95603515624998 29) " fill="#0fc8af" stroke="#0fc8af" stroke-width="0.053" data-glyph-w="17.5243603515625" data-glyph-h="36.1103369140625" data-glyph-ascender="29.23291015625" data-glyph-descender="-6.877426757812501" data-kerning="0"></path><path d="M0,0Z" transform="translate(257.4803955078125 29) " fill="#0fc8af" stroke="#0fc8af" stroke-width="0.053" data-glyph-w="8.754487304687501" data-glyph-h="36.1103369140625" data-glyph-ascender="29.23291015625" data-glyph-descender="-6.877426757812501" data-kerning="0"></path><path d="M8.08 0L6.43 0L0.51-22.62L0.51-22.62L2.15-22.62L3.82-22.62L3.82-22.62L7.85-4.74Q7.95-4.29 8.02-3.88Q8.09-3.48 8.09-3.31L8.09-3.31L8.09-3.31Q8.09-3.51 8.17-3.92Q8.25-4.34 8.35-4.74L8.35-4.74L13.14-22.62L14.86-22.62L16.59-22.62L21.34-4.83Q21.46-4.42 21.54-3.98Q21.62-3.55 21.62-3.35L21.62-3.35L21.62-3.35Q21.62-3.52 21.69-3.95Q21.76-4.38 21.86-4.83L21.86-4.83L25.94-22.62L25.94-22.62L27.59-22.62L29.23-22.62L29.23-22.62L23.31 0L21.66 0L20.02 0L15.11-17.49Q14.99-17.94 14.89-18.37Q14.80-18.80 14.80-18.97L14.80-18.97L14.80-18.97Q14.80-18.77 14.72-18.35Q14.65-17.92 14.52-17.49L14.52-17.49L9.72 0L8.08 0Z" transform="translate(266.2348828125 29) " fill="#0fc8af" stroke="#0fc8af" stroke-width="0.053" data-glyph-w="29.7406396484375" data-glyph-h="36.1103369140625" data-glyph-ascender="29.23291015625" data-glyph-descender="-6.877426757812501" data-kerning="0"></path><path d="M2.14 0L2.14 0L2.14-16.46L2.14-16.46L3.52-16.46L4.91-16.46L4.91-16.46L4.91 0L4.91 0L3.52 0L2.14 0ZM2.11-19.48L2.11-22.62L4.94-22.62L4.94-19.48L2.11-19.48Z" transform="translate(295.9755224609375 29) " fill="#0fc8af" stroke="#0fc8af" stroke-width="0.053" data-glyph-w="7.0005126953125005" data-glyph-h="36.1103369140625" data-glyph-ascender="29.23291015625" data-glyph-descender="-6.877426757812501" data-kerning="0"></path><path d="M2.11 0L2.11 0L2.11-22.62L2.11-22.62L3.49-22.62L4.88-22.62L4.88-22.62L4.88 0L4.88 0L3.49 0L2.11 0Z" transform="translate(302.97603515625 29) " fill="#0fc8af" stroke="#0fc8af" stroke-width="0.053" data-glyph-w="7.0005126953125005" data-glyph-h="36.1103369140625" data-glyph-ascender="29.23291015625" data-glyph-descender="-6.877426757812501" data-kerning="0"></path><path d="M2.11 0L2.11 0L2.11-22.62L2.11-22.62L3.49-22.62L4.88-22.62L4.88-22.62L4.88 0L4.88 0L3.49 0L2.11 0Z" transform="translate(309.97654785156254 29) " fill="#0fc8af" stroke="#0fc8af" stroke-width="0.053" data-glyph-w="7.0005126953125005" data-glyph-h="36.1103369140625" data-glyph-ascender="29.23291015625" data-glyph-descender="-6.877426757812501" data-kerning="0"></path><path d="M0,0Z" transform="translate(316.97706054687507 29) " fill="#0fc8af" stroke="#0fc8af" stroke-width="0.053" data-glyph-w="8.754487304687501" data-glyph-h="36.1103369140625" data-glyph-ascender="29.23291015625" data-glyph-descender="-6.877426757812501" data-kerning="0"></path><path d="M5.35-18.45L5.35 0L5.35 0L3.88 0L2.40 0L2.40 0L2.40-22.62L2.40-22.62L4.23-22.62L6.08-22.62L6.08-22.62L17.40-4.23L17.40-4.23L17.40-4.23L17.40-22.62L17.40-22.62L18.88-22.62L20.36-22.62L20.36-22.62L20.36 0L18.68 0L17.00 0L5.35-18.45L5.35-18.45L5.35-18.45Z" transform="translate(325.7315478515626 29) " fill="#0fc8af" stroke="#0fc8af" stroke-width="0.053" data-glyph-w="22.7555126953125" data-glyph-h="36.1103369140625" data-glyph-ascender="29.23291015625" data-glyph-descender="-6.877426757812501" data-kerning="0"></path><path d="M8.75 0.45L8.75 0.45Q5.26 0.45 3.26-1.77Q1.26-3.98 1.26-7.89L1.26-7.89Q1.26-12.05 3.38-14.50Q5.49-16.96 9.06-16.96L9.06-16.96Q12.29-16.96 14.28-14.55Q16.26-12.15 16.26-8.25L16.26-8.25L16.23-7.26L16.23-7.26L4.20-7.26L4.20-7.26Q4.37-4.80 5.32-3.51L5.32-3.51Q6.49-1.94 9.02-1.94L9.02-1.94Q10.60-1.94 11.79-2.83Q12.97-3.72 13.23-5.11L13.23-5.11L13.23-5.11L15.97-5.11L15.97-5.11Q15.35-2.40 13.51-0.98Q11.66 0.45 8.75 0.45ZM4.20-9.49L13.37-9.49L13.37-9.49Q13.25-11.79 12.23-13.06L12.23-13.06Q11.11-14.48 8.94-14.48L8.94-14.48Q6.75-14.48 5.45-12.85L5.45-12.85Q4.42-11.57 4.20-9.49L4.20-9.49L4.20-9.49Z" transform="translate(348.4870605468751 29) " fill="#0fc8af" stroke="#0fc8af" stroke-width="0.053" data-glyph-w="17.5243603515625" data-glyph-h="36.1103369140625" data-glyph-ascender="29.23291015625" data-glyph-descender="-6.877426757812501" data-kerning="0"></path><path d="M8.75 0.45L8.75 0.45Q5.26 0.45 3.26-1.77Q1.26-3.98 1.26-7.89L1.26-7.89Q1.26-12.05 3.38-14.50Q5.49-16.96 9.06-16.96L9.06-16.96Q12.29-16.96 14.28-14.55Q16.26-12.15 16.26-8.25L16.26-8.25L16.23-7.26L16.23-7.26L4.20-7.26L4.20-7.26Q4.37-4.80 5.32-3.51L5.32-3.51Q6.49-1.94 9.02-1.94L9.02-1.94Q10.60-1.94 11.79-2.83Q12.97-3.72 13.23-5.11L13.23-5.11L13.23-5.11L15.97-5.11L15.97-5.11Q15.35-2.40 13.51-0.98Q11.66 0.45 8.75 0.45ZM4.20-9.49L13.37-9.49L13.37-9.49Q13.25-11.79 12.23-13.06L12.23-13.06Q11.11-14.48 8.94-14.48L8.94-14.48Q6.75-14.48 5.45-12.85L5.45-12.85Q4.42-11.57 4.20-9.49L4.20-9.49L4.20-9.49Z" transform="translate(366.0114208984376 29) " fill="#0fc8af" stroke="#0fc8af" stroke-width="0.053" data-glyph-w="17.5243603515625" data-glyph-h="36.1103369140625" data-glyph-ascender="29.23291015625" data-glyph-descender="-6.877426757812501" data-kerning="0"></path><path d="M8.32 0.45L8.32 0.45Q5.02 0.45 3.06-2.02Q1.11-4.49 1.11-8.69L1.11-8.69Q1.11-12.40 3.00-14.68Q4.89-16.96 7.94-16.96L7.94-16.96Q10.97-16.96 12.74-14.39L12.74-14.39L12.95-14.08L12.95-14.08L12.95-22.62L12.95-22.62L14.34-22.62L15.72-22.62L15.72-22.62L15.72 0L15.72 0L14.45 0L13.15 0L13.15 0L13.15-2.25L13.15-2.25L12.80-1.74Q11.09 0.45 8.32 0.45ZM8.48-14.46L8.48-14.46Q6.15-14.46 5.08-12.98Q4.00-11.49 4.00-8.26L4.00-8.26Q4.00-5.22 5.16-3.57Q6.32-1.92 8.48-1.92L8.48-1.92Q10.49-1.92 11.72-3.44Q12.95-4.95 12.95-7.45L12.95-7.45Q12.95-10.82 11.79-12.64Q10.63-14.46 8.48-14.46Z" transform="translate(383.5357812500001 29) " fill="#0fc8af" stroke="#0fc8af" stroke-width="0.053" data-glyph-w="17.5243603515625" data-glyph-h="36.1103369140625" data-glyph-ascender="29.23291015625" data-glyph-descender="-6.877426757812501" data-kerning="0"></path><path d="M0,0Z" transform="translate(401.06014160156263 29) " fill="#0fc8af" stroke="#0fc8af" stroke-width="0.053" data-glyph-w="8.754487304687501" data-glyph-h="36.1103369140625" data-glyph-ascender="29.23291015625" data-glyph-descender="-6.877426757812501" data-kerning="0"></path><path d="M2.86 0L2.86 0L2.86-22.62L2.86-22.62L4.38-22.62L5.92-22.62L5.92-22.62L5.92 0L5.92 0L4.40 0L2.86 0Z" transform="translate(409.81462890625016 29) " fill="#0fc8af" stroke="#0fc8af" stroke-width="0.053" data-glyph-w="8.754487304687501" data-glyph-h="36.1103369140625" data-glyph-ascender="29.23291015625" data-glyph-descender="-6.877426757812501" data-kerning="0"></path><path d="M2.05 0L2.05 0L2.05-16.46L2.05-16.46L3.35-16.46L4.68-16.46L4.68-16.46L4.68-14.03L4.68-14.03L4.68-14.03L5.29-14.85Q7.09-16.96 9.80-16.96L9.80-16.96Q12.52-16.96 14.00-15.48Q15.48-14.00 15.48-11.28L15.48-11.28L15.48 0L15.48 0L14.09 0L12.71 0L12.71 0L12.71-10.34Q12.71-12.51 11.87-13.47Q11.03-14.43 9.15-14.43L9.15-14.43Q7.15-14.43 5.99-12.92Q4.82-11.40 4.82-8.82L4.82-8.82L4.82-8.82L4.82 0L4.82 0L3.43 0L2.05 0Z" transform="translate(418.56911621093764 29) " fill="#0fc8af" stroke="#0fc8af" stroke-width="0.053" data-glyph-w="17.5243603515625" data-glyph-h="36.1103369140625" data-glyph-ascender="29.23291015625" data-glyph-descender="-6.877426757812501" data-kerning="0"></path><path d="M0,0Z" transform="translate(436.09347656250014 29) " fill="#0fc8af" stroke="#0fc8af" stroke-width="0.053" data-glyph-w="8.754487304687501" data-glyph-h="36.1103369140625" data-glyph-ascender="29.23291015625" data-glyph-descender="-6.877426757812501" data-kerning="0"></path><path d="M5.35-18.45L5.35 0L5.35 0L3.88 0L2.40 0L2.40 0L2.40-22.62L2.40-22.62L4.23-22.62L6.08-22.62L6.08-22.62L17.40-4.23L17.40-4.23L17.40-4.23L17.40-22.62L17.40-22.62L18.88-22.62L20.36-22.62L20.36-22.62L20.36 0L18.68 0L17.00 0L5.35-18.45L5.35-18.45L5.35-18.45Z" transform="translate(444.8479638671877 29) " fill="#0fc8af" stroke="#0fc8af" stroke-width="0.053" data-glyph-w="22.7555126953125" data-glyph-h="36.1103369140625" data-glyph-ascender="29.23291015625" data-glyph-descender="-6.877426757812501" data-kerning="0"></path><path d="M8.75 0.45L8.75 0.45Q5.26 0.45 3.26-1.77Q1.26-3.98 1.26-7.89L1.26-7.89Q1.26-12.05 3.38-14.50Q5.49-16.96 9.06-16.96L9.06-16.96Q12.29-16.96 14.28-14.55Q16.26-12.15 16.26-8.25L16.26-8.25L16.23-7.26L16.23-7.26L4.20-7.26L4.20-7.26Q4.37-4.80 5.32-3.51L5.32-3.51Q6.49-1.94 9.02-1.94L9.02-1.94Q10.60-1.94 11.79-2.83Q12.97-3.72 13.23-5.11L13.23-5.11L13.23-5.11L15.97-5.11L15.97-5.11Q15.35-2.40 13.51-0.98Q11.66 0.45 8.75 0.45ZM4.20-9.49L13.37-9.49L13.37-9.49Q13.25-11.79 12.23-13.06L12.23-13.06Q11.11-14.48 8.94-14.48L8.94-14.48Q6.75-14.48 5.45-12.85L5.45-12.85Q4.42-11.57 4.20-9.49L4.20-9.49L4.20-9.49Z" transform="translate(467.6034765625002 29) " fill="#0fc8af" stroke="#0fc8af" stroke-width="0.053" data-glyph-w="17.5243603515625" data-glyph-h="36.1103369140625" data-glyph-ascender="29.23291015625" data-glyph-descender="-6.877426757812501" data-kerning="0"></path><path d="M1.83 6.51L1.83-16.46L1.83-16.46L3.14-16.46L4.46-16.46L4.46-16.46L4.46-14.12L4.46-14.12L4.60-14.32Q6.39-16.96 9.29-16.96L9.29-16.96Q12.52-16.96 14.41-14.73Q16.29-12.51 16.29-8.72L16.29-8.72Q16.29-4.43 14.39-1.99Q12.49 0.45 9.12 0.45L9.12 0.45Q6.34 0.45 4.69-1.69L4.69-1.69L4.60-1.82L4.60-1.82L4.60 6.51L4.60 6.51L3.22 6.51L1.83 6.51L1.83 6.51ZM8.99-1.95L8.99-1.95Q11.15-1.95 12.28-3.59Q13.40-5.23 13.40-8.37L13.40-8.37Q13.40-11.46 12.32-12.95Q11.25-14.43 9.00-14.43L9.00-14.43Q6.71-14.43 5.65-12.75Q4.60-11.08 4.60-7.45L4.60-7.45L4.60-7.45L4.60-7.45L4.60-7.45Q4.60-4.82 5.74-3.38Q6.88-1.95 8.99-1.95Z" transform="translate(485.1278369140627 29) " fill="#0fc8af" stroke="#0fc8af" stroke-width="0.053" data-glyph-w="17.5243603515625" data-glyph-h="36.1103369140625" data-glyph-ascender="29.23291015625" data-glyph-descender="-6.877426757812501" data-kerning="0"></path><path d="M6.39 0.45L6.39 0.45Q3.97 0.45 2.55-0.85Q1.14-2.14 1.14-4.34L1.14-4.34Q1.14-6.55 2.47-7.86Q3.80-9.17 6.35-9.49L6.35-9.49L10.12-9.97Q10.59-10.02 11.00-10.12L11.00-10.12Q11.54-10.26 11.83-10.68Q12.12-11.09 12.12-11.72L12.12-11.72L12.12-11.86Q12.12-13.19 11.12-13.93Q10.12-14.68 8.34-14.68L8.34-14.68Q6.63-14.68 5.67-13.89Q4.71-13.09 4.51-11.52L4.51-11.52L4.51-11.52L1.95-11.52L1.95-11.52Q2.15-14.23 3.86-15.59Q5.57-16.96 8.75-16.96L8.75-16.96Q11.75-16.96 13.32-15.65Q14.89-14.35 14.89-11.86L14.89-11.86L14.89-2.82Q14.89-2.40 15.15-2.15Q15.40-1.89 15.83-1.89L15.83-1.89Q15.96-1.89 16.19-1.92Q16.43-1.95 16.71-2.02L16.71-2.02L16.71-0.02Q16.31 0.14 15.86 0.23Q15.42 0.32 15.11 0.32L15.11 0.32Q13.54 0.32 12.83-0.54L12.83-0.54Q12.37-1.11 12.17-2.15L12.17-2.15L12.17-2.15Q11.86-1.77 11.46-1.42L11.46-1.42Q9.39 0.45 6.39 0.45ZM12.12-6.52L12.12-6.52L12.12-8.31L12.12-8.31Q11.35-7.94 10.42-7.80L10.42-7.80L7.88-7.43Q5.88-7.15 4.95-6.50Q4.03-5.85 4.03-4.72L4.03-4.72Q4.03-3.34 4.78-2.59Q5.54-1.85 6.92-1.85L6.92-1.85Q9.11-1.85 10.62-3.03L10.62-3.03Q11.65-3.86 11.99-4.91L11.99-4.91Q12.05-5.11 12.08-5.54L12.08-5.54Q12.12-5.99 12.12-6.52Z" transform="translate(502.6521972656252 29) " fill="#0fc8af" stroke="#0fc8af" stroke-width="0.053" data-glyph-w="17.5243603515625" data-glyph-h="36.1103369140625" data-glyph-ascender="29.23291015625" data-glyph-descender="-6.877426757812501" data-kerning="0"></path><path d="M2.11 0L2.11 0L2.11-22.62L2.11-22.62L3.49-22.62L4.88-22.62L4.88-22.62L4.88 0L4.88 0L3.49 0L2.11 0Z" transform="translate(520.1765576171877 29) " fill="#0fc8af" stroke="#0fc8af" stroke-width="0.053" data-glyph-w="7.0005126953125005" data-glyph-h="36.1103369140625" data-glyph-ascender="29.23291015625" data-glyph-descender="-6.877426757812501" data-kerning="0"></path><path d="M0,0Z" transform="translate(527.1770703125002 29) " fill="#0fc8af" stroke="#0fc8af" stroke-width="0.053" data-glyph-w="8.754487304687501" data-glyph-h="36.1103369140625" data-glyph-ascender="29.23291015625" data-glyph-descender="-6.877426757812501" data-kerning="0"></path><path d="M4.25 0L2.71 0L2.71-22.62L2.71-22.62L18.37-22.62L18.37-22.62L18.37-21.26L18.37-19.91L18.37-19.91L5.77-19.91L5.77-19.91L5.77-13.00L5.77-13.00L16.80-13.00L16.80-11.65L16.80-10.29L16.80-10.29L5.77-10.29L5.77-10.29L5.77 0L4.25 0Z" transform="translate(535.9315576171877 29) " fill="#0fc8af" stroke="#0fc8af" stroke-width="0.053" data-glyph-w="19.2475634765625" data-glyph-h="36.1103369140625" data-glyph-ascender="29.23291015625" data-glyph-descender="-6.877426757812501" data-kerning="0"></path><path d="M8.75 0.45L8.75 0.45Q5.34 0.45 3.22-1.95Q1.11-4.35 1.11-8.25L1.11-8.25Q1.11-12.15 3.22-14.55Q5.34-16.96 8.75-16.96L8.75-16.96Q12.20-16.96 14.31-14.55Q16.42-12.15 16.42-8.25L16.42-8.25Q16.42-4.35 14.31-1.95Q12.20 0.45 8.75 0.45L8.75 0.45ZM8.75-1.94L8.75-1.94Q10.94-1.94 12.23-3.65Q13.52-5.35 13.52-8.25L13.52-8.25Q13.52-11.14 12.23-12.85Q10.94-14.57 8.75-14.57L8.75-14.57Q6.57-14.57 5.29-12.85Q4.00-11.14 4.00-8.25L4.00-8.25Q4.00-5.35 5.29-3.65Q6.57-1.94 8.75-1.94L8.75-1.94Z" transform="translate(555.1791210937502 29) " fill="#0fc8af" stroke="#0fc8af" stroke-width="0.053" data-glyph-w="17.5243603515625" data-glyph-h="36.1103369140625" data-glyph-ascender="29.23291015625" data-glyph-descender="-6.877426757812501" data-kerning="0"></path><path d="M2.43 0L2.43 0L2.43-16.46L2.43-16.46L3.74-16.46L5.06-16.46L5.06-16.46L5.06-13.65L5.06-13.65L5.06-13.65Q5.42-14.31 5.82-14.85L5.82-14.85Q7.39-16.96 9.68-16.96L9.68-16.96Q10.06-16.96 10.46-16.82L10.46-16.82L10.46-13.99L9.89-14.00Q7.65-14.00 6.42-12.65Q5.20-11.31 5.20-8.82L5.20-8.82L5.20-8.82L5.20 0L5.20 0L3.82 0L2.43 0Z" transform="translate(572.7034814453126 29) " fill="#0fc8af" stroke="#0fc8af" stroke-width="0.053" data-glyph-w="10.493076171875" data-glyph-h="36.1103369140625" data-glyph-ascender="29.23291015625" data-glyph-descender="-6.877426757812501" data-kerning="0"></path><path d="M0,0Z" transform="translate(583.1965576171876 29) " fill="#0fc8af" stroke="#0fc8af" stroke-width="0.053" data-glyph-w="8.754487304687501" data-glyph-h="36.1103369140625" data-glyph-ascender="29.23291015625" data-glyph-descender="-6.877426757812501" data-kerning="0"></path><path d="M19.42 0L2.71 0L2.71 0L2.71-22.62L2.71-22.62L19.25-22.62L19.25-22.62L19.25-21.26L19.25-19.91L19.25-19.91L5.77-19.91L5.77-19.91L5.77-13.00L5.77-13.00L18.08-13.00L18.08-11.65L18.08-10.29L18.08-10.29L5.77-10.29L5.77-10.29L5.77-2.71L5.77-2.71L19.42-2.71L19.42-2.71L19.42-1.35L19.42 0L19.42 0Z" transform="translate(591.9510449218751 29) " fill="#0fc8af" stroke="#0fc8af" stroke-width="0.053" data-glyph-w="21.016923828125" data-glyph-h="36.1103369140625" data-glyph-ascender="29.23291015625" data-glyph-descender="-6.877426757812501" data-kerning="0"></path><path d="M6.40 0L0.25-16.46L0.25-16.46L1.86-16.46L3.48-16.46L3.48-16.46L7.89-2.98L7.89-2.98L7.89-2.98L12.45-16.46L12.45-16.46L13.97-16.46L15.51-16.46L15.51-16.46L9.37 0L7.89 0L6.40 0Z" transform="translate(612.9679687500001 29) " fill="#0fc8af" stroke="#0fc8af" stroke-width="0.053" data-glyph-w="15.755" data-glyph-h="36.1103369140625" data-glyph-ascender="29.23291015625" data-glyph-descender="-6.877426757812501" data-kerning="0"></path><path d="M8.75 0.45L8.75 0.45Q5.26 0.45 3.26-1.77Q1.26-3.98 1.26-7.89L1.26-7.89Q1.26-12.05 3.38-14.50Q5.49-16.96 9.06-16.96L9.06-16.96Q12.29-16.96 14.28-14.55Q16.26-12.15 16.26-8.25L16.26-8.25L16.23-7.26L16.23-7.26L4.20-7.26L4.20-7.26Q4.37-4.80 5.32-3.51L5.32-3.51Q6.49-1.94 9.02-1.94L9.02-1.94Q10.60-1.94 11.79-2.83Q12.97-3.72 13.23-5.11L13.23-5.11L13.23-5.11L15.97-5.11L15.97-5.11Q15.35-2.40 13.51-0.98Q11.66 0.45 8.75 0.45ZM4.20-9.49L13.37-9.49L13.37-9.49Q13.25-11.79 12.23-13.06L12.23-13.06Q11.11-14.48 8.94-14.48L8.94-14.48Q6.75-14.48 5.45-12.85L5.45-12.85Q4.42-11.57 4.20-9.49L4.20-9.49L4.20-9.49Z" transform="translate(628.7229687500001 29) " fill="#0fc8af" stroke="#0fc8af" stroke-width="0.053" data-glyph-w="17.5243603515625" data-glyph-h="36.1103369140625" data-glyph-ascender="29.23291015625" data-glyph-descender="-6.877426757812501" data-kerning="0"></path><path d="M2.43 0L2.43 0L2.43-16.46L2.43-16.46L3.74-16.46L5.06-16.46L5.06-16.46L5.06-13.65L5.06-13.65L5.06-13.65Q5.42-14.31 5.82-14.85L5.82-14.85Q7.39-16.96 9.68-16.96L9.68-16.96Q10.06-16.96 10.46-16.82L10.46-16.82L10.46-13.99L9.89-14.00Q7.65-14.00 6.42-12.65Q5.20-11.31 5.20-8.82L5.20-8.82L5.20-8.82L5.20 0L5.20 0L3.82 0L2.43 0Z" transform="translate(646.2473291015625 29) " fill="#0fc8af" stroke="#0fc8af" stroke-width="0.053" data-glyph-w="10.493076171875" data-glyph-h="36.1103369140625" data-glyph-ascender="29.23291015625" data-glyph-descender="-6.877426757812501" data-kerning="0"></path><path d="M15.40-16.46L15.40-16.46L9.14 0.54Q7.69 4.34 6.56 5.51Q5.43 6.68 3.17 6.68L3.17 6.68Q2.43 6.69 1.83 6.51L1.83 6.51L1.83 3.94Q2.46 4.17 3.42 4.18L3.42 4.18Q4.35 4.18 4.98 3.42Q5.62 2.65 6.42 0.54L6.42 0.54L6.46 0.28L6.46 0.28L0.35-16.46L0.35-16.46L1.92-16.46L3.51-16.46L3.51-16.46L7.91-2.85L7.91-2.85L7.91-2.85L12.37-16.46L12.37-16.46L13.88-16.46L15.40-16.46Z" transform="translate(656.7404052734375 29) " fill="#0fc8af" stroke="#0fc8af" stroke-width="0.053" data-glyph-w="15.755" data-glyph-h="36.1103369140625" data-glyph-ascender="29.23291015625" data-glyph-descender="-6.877426757812501" data-kerning="0"></path><path d="M8.09-2.15L8.09-0.02Q6.68 0.20 6.03 0.20L6.03 0.20Q4.22 0.20 3.47-0.60Q2.72-1.40 2.72-3.35L2.72-3.35L2.72-14.20L2.72-14.20L0.45-14.20L0.45-16.46L2.72-16.46L2.72-16.46L2.72-21.08L5.49-21.08L5.49-16.46L5.49-16.46L8.09-16.46L8.09-14.20L5.49-14.20L5.49-14.20L5.49-3.35Q5.49-2.80 5.93-2.48Q6.37-2.15 7.11-2.15L7.11-2.15L8.09-2.15Z" transform="translate(672.4954052734375 29) " fill="#0fc8af" stroke="#0fc8af" stroke-width="0.053" data-glyph-w="8.754487304687501" data-glyph-h="36.1103369140625" data-glyph-ascender="29.23291015625" data-glyph-descender="-6.877426757812501" data-kerning="0"></path><path d="M2.05 0L2.05 0L2.05-22.62L2.05-22.62L3.43-22.62L4.82-22.62L4.82-22.62L4.82-14.23L4.82-14.23L4.82-14.23L5.29-14.85Q7.09-16.96 9.80-16.96L9.80-16.96Q12.52-16.96 14.00-15.48Q15.48-14.00 15.48-11.28L15.48-11.28L15.48 0L15.48 0L14.09 0L12.71 0L12.71 0L12.71-10.59Q12.71-12.63 11.92-13.53Q11.14-14.43 9.37-14.43L9.37-14.43Q7.28-14.43 6.05-12.92Q4.82-11.40 4.82-8.82L4.82-8.82L4.82-8.82L4.82 0L4.82 0L3.43 0L2.05 0Z" transform="translate(681.249892578125 29) " fill="#0fc8af" stroke="#0fc8af" stroke-width="0.053" data-glyph-w="17.5243603515625" data-glyph-h="36.1103369140625" data-glyph-ascender="29.23291015625" data-glyph-descender="-6.877426757812501" data-kerning="0"></path><path d="M2.14 0L2.14 0L2.14-16.46L2.14-16.46L3.52-16.46L4.91-16.46L4.91-16.46L4.91 0L4.91 0L3.52 0L2.14 0ZM2.11-19.48L2.11-22.62L4.94-22.62L4.94-19.48L2.11-19.48Z" transform="translate(698.7742529296875 29) " fill="#0fc8af" stroke="#0fc8af" stroke-width="0.053" data-glyph-w="7.0005126953125005" data-glyph-h="36.1103369140625" data-glyph-ascender="29.23291015625" data-glyph-descender="-6.877426757812501" data-kerning="0"></path><path d="M2.05 0L2.05 0L2.05-16.46L2.05-16.46L3.35-16.46L4.68-16.46L4.68-16.46L4.68-14.03L4.68-14.03L4.68-14.03L5.29-14.85Q7.09-16.96 9.80-16.96L9.80-16.96Q12.52-16.96 14.00-15.48Q15.48-14.00 15.48-11.28L15.48-11.28L15.48 0L15.48 0L14.09 0L12.71 0L12.71 0L12.71-10.34Q12.71-12.51 11.87-13.47Q11.03-14.43 9.15-14.43L9.15-14.43Q7.15-14.43 5.99-12.92Q4.82-11.40 4.82-8.82L4.82-8.82L4.82-8.82L4.82 0L4.82 0L3.43 0L2.05 0Z" transform="translate(705.774765625 29) " fill="#0fc8af" stroke="#0fc8af" stroke-width="0.053" data-glyph-w="17.5243603515625" data-glyph-h="36.1103369140625" data-glyph-ascender="29.23291015625" data-glyph-descender="-6.877426757812501" data-kerning="0"></path><path d="M8.08 4.66L8.08 4.66Q10.46 4.66 11.71 3.16Q12.95 1.66 12.95-1.22L12.95-1.22L12.95-1.75L12.94-1.74Q11.23 0.45 8.48 0.45L8.48 0.45Q5.17 0.45 3.22-2.02Q1.26-4.49 1.26-8.69L1.26-8.69Q1.26-12.40 3.18-14.68Q5.11-16.96 8.22-16.96L8.22-16.96Q11.19-16.96 12.92-14.39L12.92-14.39L13.12-14.09L13.12-14.09L13.12-16.46L13.12-16.46L15.72-16.46L15.72-1.22Q15.71 2.95 13.85 4.95Q11.99 6.95 8.12 6.95L8.12 6.95Q5.32 6.95 3.68 5.66Q2.03 4.37 1.69 1.91L1.69 1.91L1.69 1.91L4.52 1.91L4.52 1.91Q4.77 3.23 5.70 3.95Q6.63 4.66 8.08 4.66ZM8.62-14.43L8.62-14.43Q6.29-14.43 5.22-12.95Q4.15-11.48 4.15-8.26L4.15-8.26Q4.15-5.23 5.32-3.59Q6.48-1.95 8.62-1.95L8.62-1.95Q10.63-1.95 11.86-3.46Q13.09-4.97 13.09-7.45L13.09-7.45Q13.09-10.94 11.98-12.69Q10.86-14.43 8.62-14.43Z" transform="translate(723.2991259765624 29) " fill="#0fc8af" stroke="#0fc8af" stroke-width="0.053" data-glyph-w="17.5243603515625" data-glyph-h="36.1103369140625" data-glyph-ascender="29.23291015625" data-glyph-descender="-6.877426757812501" data-kerning="0"></path><path d="M2.74 0L2.74-3.34L6.03-3.34L6.03 0L2.74 0Z" transform="translate(740.8234863281249 29) " fill="#0fc8af" stroke="#0fc8af" stroke-width="0.053" data-glyph-w="8.754487304687501" data-glyph-h="36.1103369140625" data-glyph-ascender="29.23291015625" data-glyph-descender="-6.877426757812501" data-kerning="0"></path></g></svg>
                </g>
              </g>
              <g id="shape_XPqX46gjfz" ref="shape_XPqX46gjfz" key="shape_XPqX46gjfz" mask="">
                <g transform="translate(160,254.2749476971028) rotate(0,46.60457572374812,34.845691177015254) scale(1,1)" style="opacity: 1;mix-blend-mode: undefined;" filter="">
                  <!--普通元素-->
                  <svg version="1.1" id="图层_1" xmlns="http://www.w3.org/2000/svg" xmlns:xlink="http://www.w3.org/1999/xlink" x="0px" y="0px" width="93.20915144749624" height="69.69138235403051" viewBox="0 0 284.41 212.65" style="enable-background:new 0 0 284.41 212.65;" xml:space="preserve" class="style-removed" preserveAspectRatio="none" data-parent="shape_XPqX46gjfz">

<g>
	<g>
		<path d="M141.37,146.45l0-130.02h-30.22l0,141.35C121.19,154.81,131.34,151.03,141.37,146.45z" fill="#ffffff" stroke-width="0"></path>
	</g>
	<g>
		<path d="M284.41,16.43v196.23h-30.22V112.38c-20.15,27.88-48.11,51.67-81.57,69.33
			c-35.22,18.57-74.06,28.81-109.38,28.81c-8.35,0-15.11-6.76-15.11-15.11s6.76-15.11,15.11-15.11
			c56.56,0,134.18-32.82,173.14-95.56c11.81-19.04,17.81-40.37,17.81-63.39v-4.93H284.41z" fill="#ffffff" stroke-width="0"></path>
	</g>
	<g>
		<path d="M106.37,159.51c-23.52,6.31-49.17,6.57-72.86,0.27c-4.93-1.23-10.78-3.35-15.52-5.2
			c-1.99-0.89-7.08-3.28-9.11-4.22c-8.57-5.12-11.04-15.76-6.94-22.68c4.55-7.69,16.9-10.27,25.53-3.1
			c2.28,2.38,4.73,4.74,7.39,7.01C54.48,148.34,80.67,157.48,106.37,159.51L106.37,159.51z" fill="#0fc8af" stroke-width="0"></path>
	</g>
	<g>
		<path d="M70.58,143.08c-20.87-12.55-38.85-30.83-50.77-52.26c-2.53-4.4-5.07-10.08-7.03-14.79
			c-0.74-2.06-2.56-7.37-3.29-9.49C7.24,56.82,13.17,47.65,21,45.8c8.69-2.06,19.13,5.04,19.95,16.22
			c-0.13,3.29-0.13,6.69,0.08,10.18C42.6,97.97,54.2,123.17,70.58,143.08L70.58,143.08z" fill="#0fc8af" stroke-width="0"></path>
	</g>
	<g>
		<path d="M59.51,106.48c-6.41-23.49-6.78-49.14-0.59-72.86c1.21-4.93,3.3-10.79,5.13-15.55c0.88-2,3.25-7.09,4.18-9.13
			C73.32,0.35,83.95-2.17,90.89,1.9c7.71,4.52,10.34,16.86,3.21,25.52c-2.37,2.29-4.72,4.75-6.98,7.42
			C70.45,54.54,61.42,80.77,59.51,106.48L59.51,106.48z" fill="#0fc8af" stroke-width="0"></path>
	</g>
</g>
<rect x="-6476.83" y="-84.24" width="10788.29" height="2078.95" fill="none" stroke-width="0"></rect>
</svg>
                </g>
              </g>
    </svg>