<svg xmlns="http://www.w3.org/2000/svg" xmlns:xlink="http://www.w3.org/1999/xlink" class="svg-canvas" viewBox="304.77667972986 158.56949751429 190.45089053246 190.45089053246" width="1600" height="1600" preserveAspectRatio="none" version="1.1" style="background-color:#28343c"><!--滤镜--><defs></defs><!-- 背景 --><g id="background"><rect x="0" y="0" fill="#28343C" width="800" height="600"></rect></g><!--元素--><g id="shape_wExVyK87t1" ref="shape_wExVyK87t1" key="shape_wExVyK87t1" mask=""><g transform="translate(341.3443133097329,195.59539702340953) rotate(0,58.65781168636012,58.199545757106634) scale(1,1)" style="opacity: 1;mix-blend-mode: undefined;" filter=""><!--普通元素--><svg xmlns="http://www.w3.org/2000/svg" xmlns:xlink="http://www.w3.org/1999/xlink" version="1.1" id="图层_1" x="0px" y="0px" width="117.31562337272024" height="116.39909151421327" viewBox="0.8000011444091797 0.4000000059604645 51.19999694824219 50.79999542236328" style="enable-background:new 0 0 52.5 51.5;" xml:space="preserve" class="style-removed" preserveAspectRatio="none" data-parent="shape_wExVyK87t1">

<path d="M26.1,0.4c-14,0-25.3,11.3-25.3,25.3C0.8,39.1,11.1,50,24.2,51c0-2.1,0-4.2,0-6.3c-0.9-0.2-1.9-0.4-2.8-0.5  c-1.1-0.2-2.3-0.4-3.1-1.2c-1.2-1.1-1-2.8-0.1-3.9c-0.4,0-0.8,0-1.2,0c-2.1-0.1-4-0.9-4-3.3c0-1.1,0.7-1.8,1.7-2.2  c3.1-1.3,6.3-1.9,9.6-2.3c0-0.2,0-0.4,0-0.6c-5.8,0-11.6,0-17.5,0c-2.6,0-2.9-3.6-0.6-4.4c3.6-1.2,7.3-1.8,11-2.3  c-2.1-0.5-2.5-3.9-0.1-4.4c2.6-0.6,5.3-1,7.9-1.5c0.7-0.1,1.4-0.3,2.1-0.5c-1.5-0.2-2.9-0.4-4.3-0.7c-2.3-0.5-2-3.7,0-4.3  c0.7-0.2,1.4-0.4,2-0.8c0,0,0.1-0.1,0.2-0.2c-0.8-0.1-1.8-0.5-2.4-1.3c-0.9-1.4-0.2-3,1.1-3.8c0.7-0.5,1.5-0.9,2.2-1.4  c0.3-0.2,0.6-0.6,0.9-0.7c0.1,0,0.1-0.1,0.2-0.1c0-0.3,0-0.5,0.1-0.8c0.3-1.1,1.6-2,2.8-1.6c1.9,0.8,2.6,2.7,1.4,4.5  c-0.6,0.9-1.6,1.6-2.5,2.3c0,0,0,0,0.1,0c0.8,0.9,1.2,2.2,1,3.4c-0.1,0.5-0.2,1-0.5,1.4c0.9,0.1,1.8,0.2,2.7,0.4  c1.3,0.2,2.7,0.3,3.6,1.4c1.1,1.4,0.5,3.1-0.7,4.1c-0.4,0.3-0.8,0.6-1.2,0.8c1.1,0,2.2,0.1,3.3,0.1c2.7,0.1,2.9,3.5,0.6,4.4  c-1.6,0.7-3.3,1.2-4.9,1.6c4.9,0,9.7,0,14.6,0c1.7,0,2.8,1.9,1.9,3.4c-1.5,2.4-4.8,2.8-7.3,3.4c-2.8,0.6-5.6,1.1-8.4,1.5  c1.4-0.1,2.8,0,4,0.4c1.7,0.6,2.9,2.4,2.4,4.3c-0.5,1.8-2.3,2.5-3.9,2.6c-2.3,0.2-4.6,0.1-6.9,0.1c0,3.1,0,6.1,0,9.2  c12.8-1.3,22.8-12.1,22.8-25.2C51.5,11.8,40.1,0.4,26.1,0.4z" fill="#0FC8AF" stroke-width="0"></path>
</svg></g></g></svg>